<?xml version="1.0" standalone="no"?>
<!DOCTYPE svg PUBLIC "-//W3C//DTD SVG 20010904//EN"
 "http://www.w3.org/TR/2001/REC-SVG-20010904/DTD/svg10.dtd">
<svg version="1.0" xmlns="http://www.w3.org/2000/svg"
 width="700.000000pt" height="700.000000pt" viewBox="0 0 700.000000 700.000000"
 preserveAspectRatio="xMidYMid meet">
<metadata>
Created by potrace 1.11, written by Peter Selinger 2001-2013
</metadata>
<g transform="translate(0.000000,700.000000) scale(0.100000,-0.100000)"
fill="#000000" stroke="none">
<path d="M1112 5836 l3 -801 1460 -1 c803 -1 1464 -2 1468 -3 5 0 -45 -53
-110 -117 -65 -64 -359 -354 -653 -644 -294 -290 -605 -597 -691 -681 -87 -85
-393 -386 -680 -670 -288 -284 -596 -588 -684 -674 -558 -549 -855 -844 -855
-850 0 -6 371 -374 839 -832 l203 -199 183 181 c101 99 416 410 700 690 285
281 604 596 710 700 106 105 409 402 672 662 263 259 568 560 678 668 110 109
338 334 507 501 168 166 308 297 310 291 2 -7 3 -690 3 -1520 l-1 -1507 731 0
732 0 -1 2803 -1 2802 -2763 1 -2762 1 2 -801z"/>
</g>
</svg>
